<?xml version="1.0" encoding="utf-8"?>
<!-- Generator: Adobe Illustrator 22.0.0, SVG Export Plug-In . SVG Version: 6.00 Build 0)  -->
<svg version="1.1" id="Calque_1" xmlns="http://www.w3.org/2000/svg" xmlns:xlink="http://www.w3.org/1999/xlink" x="0px" y="0px"
	 viewBox="0 0 432 432" style="enable-background:new 0 0 432 432;" xml:space="preserve">
<style type="text/css">
	.st0{fill:#020203;}
	.st1{fill:#F3D4AA;}
	.st2{fill:#C1292E;}
	.st3{fill:#E7E6E6;}
	.st4{fill:#A81922;}
	.st5{fill:#D6A14D;}
	.st6{fill:#E580A9;}
	.st7{fill:#FFF0BA;}
	.st8{fill:#972021;}
	.st9{fill:#D06C5D;}
	.st10{fill:#36502D;}
	.st11{fill:#79986F;}
	.st12{fill:#EB5B28;}
	.st13{fill:#A67D52;}
	.st14{fill:#F2F2F2;}
	.st15{fill:#066938;}
	.st16{fill:#009245;}
	.st17{fill:#CDCCCC;}
	.st18{fill:#AE8864;}
	.st19{fill:#412413;}
	.st20{fill:#8C633A;}
	.st21{fill:#F39323;}
	.st22{fill:#F9B03D;}
	.st23{fill:#C69C6C;}
	.st24{fill:#2FBAD7;}
	.st25{fill:#DAA405;}
	.st26{fill:#808181;}
	.st27{fill:#8E3089;}
	.st28{fill:#1861A9;}
	.st29{fill:#D4175B;}
	.st30{fill:#E3D65E;}
	.st31{fill:#C7B29A;}
	.st32{fill:#603914;}
	.st33{fill:#998675;}
	.st34{fill:#746458;}
	.st35{fill:#EAA35C;}
	.st36{fill:#A3282E;}
	.st37{fill:#DC7B18;}
	.st38{fill:#B88E5C;}
	.st39{fill:#C67B3E;}
	.st40{fill:#C74A54;}
	.st41{fill:#48AE4D;}
	.st42{fill:#9A9999;}
	.st43{fill:#6F1131;}
	.st44{fill:#EFAE5D;}
	.st45{fill:#BB7E28;}
	.st46{fill:#C8904C;}
	.st47{fill:#BB7926;}
	.st48{fill:#C68448;}
	.st49{fill:#D79A5D;}
	.st50{fill:#82171C;}
	.st51{fill:#754D24;}
	.st52{fill:#EAD797;}
	.st53{fill:#B4B4B4;}
	.st54{fill:#4E4D4D;}
	.st55{fill:#014837;}
	.st56{fill:#28285B;}
	.st57{fill:#8EC045;}
	.st58{fill:#6BC4CD;}
	.st59{fill:#699CBB;}
	.st60{fill:#6D8E5F;}
</style>
<path class="st38" d="M289,246.6c-0.9-3.9-3.9-6.6-7.8-7c-2.3-0.3-4.4,0.3-6.4,1.2c-2.6,1.1-5,2.7-7.2,4.6c-1.9,1.6-3.7,3.3-5.6,4.9
	c-1.8,1.5-3.7,2.8-5.8,3.8c-0.6,0.3-1.3,0.5-2,0.8c0.2-0.3,0.4-0.5,0.7-0.6c3-1.7,5.6-4,7.9-6.6c5.9-6.7,9.4-14.5,11.2-23.2
	c1-4.9,0.7-9.7-1.1-14.4c-1.5-3.9-4.1-7-7.9-8.8c-4.4-2-9.2-0.2-11.3,4.2c-0.7,1.5-1,3.1-0.5,4.8c0.7,2.3,2.8,4,5.1,4.1
	c2.6,0.1,4.5-1.1,5.5-3.5c0.3-0.7,0.2-1.3-0.3-1.7c-0.5-0.4-1.1-0.5-1.7-0.1c-0.4,0.3-0.8,0.6-1.1,0.9c-0.7,0.7-1.4,1.1-2.3,0.8
	c-0.9-0.3-1.4-1.2-1.4-2.2c-0.2-2.2,2-4.5,4.2-4.6c1.4,0,2.6,0.5,3.7,1.4c2.1,1.6,3.6,3.7,4.5,6.2c1.3,3.9,1.5,7.9,0.8,12
	c-0.9,5.1-2.6,9.9-5,14.4c-2.3,4.5-5.4,8.5-9.4,11.7c-2.7,2.1-5.6,3.9-8.9,4.8c-1.7,0.5-3.4,0.7-5.2,0.2c0.3-0.2,0.5-0.3,0.8-0.3
	c5.5-1.3,9.5-4.3,11.8-9.5c1.1-2.4,1.6-4.9,1.6-7.4c0.1-6-3.3-11.7-8.7-14c-4-1.8-7.8-1.4-11.2,1.5c-2.2,1.9-3.4,4.4-3.7,7.3
	c-0.4,3.6,0.8,6.6,3.8,8.6c3.9,2.7,7.6,0.9,10-2.3c0.4-0.5,0.3-1.1-0.1-1.6c-0.4-0.4-1-0.5-1.6-0.2c-0.2,0.1-0.4,0.3-0.7,0.5
	c-0.6,0.4-1.1,0.8-1.7,1.2c-1.1,0.7-2.2,0.7-3.3-0.1c-1.2-0.8-2.1-1.9-2.4-3.4c-0.6-2.7,0.3-5.1,2.2-7c1.8-1.8,4-2.2,6.3-1.3
	c2.2,0.8,3.9,2.2,5.1,4.2c1.7,2.7,2.1,5.6,1.5,8.7c-0.6,3.3-1.8,6.2-4.5,8.4c-3.9,3.2-8.2,3.8-13,1.9c-5.1-2-7.8-6-7.6-11.5
	c0.1-2.9,0.8-5.7,1.5-8.5c0.2-0.9,0.6-1.6,1.1-2.3c1.9-2.6,3.2-5.5,3.3-8.9c0.1-3-0.6-5.9-1.7-8.7c-1-2.5-2.4-4.7-4.6-6.4
	c-1.5-1.2-1.5-1.2-1.2-3.1c0-0.2,0.1-0.4,0.2-0.7c1.9-5.4,5.3-9.6,10.5-12.1c1.9-0.9,3.8-1.2,5.9-0.9c3.4,0.5,6.3,3.4,7,6.7
	c0.7,3.6-0.8,7.4-3.8,9.2c-1.6,1-3.3,1.1-5.1,0.5c-1.7-0.5-2.5-1.8-2.4-3.6c0.1-1.5,0.8-2.6,2.1-3.4c0.4-0.3,0.9-0.4,1.3-0.7
	c0.7-0.4,0.9-0.9,0.8-1.5c-0.2-0.6-0.7-0.9-1.4-0.9c-1.1,0.1-2.1,0.3-3,0.9c-2.1,1.5-3.4,3.5-3.3,6.2c0.1,2.6,1.4,4.6,3.7,5.7
	c3.3,1.6,6.5,1.4,9.6-0.5c5.8-3.7,8.7-13.5,1-19.9c-0.3-0.2-0.6-0.5-0.8-0.6c0.6-1,1.3-2,1.7-3c1-2.4,0.4-4.8-1.4-6.3
	c-2-1.6-4.5-1-5.5,1.4c-0.2,0.5-0.2,0.9,0.1,1.3c0.4,0.4,0.9,0.5,1.4,0.2c0.3-0.2,0.6-0.4,1-0.6c0.6-0.4,0.9-0.3,1.3,0.3
	c0.2,0.3,0.4,0.8,0.4,1.1c0,1.5-0.6,2.7-1.9,3.6c-0.6,0.4-1.2,0.4-1.9,0.3c-1.5-0.3-2.5-1.2-3.1-2.6c-0.5-1.3-0.6-2.6-0.4-3.9
	c0.4-2.2,1.2-4.3,2.4-6.3c1.3-2.2,3.1-3.9,5.3-5.2c0.1,0,0.2,0,0.2,0c0.2,0.1,0.3,0.2,0.5,0.3c1.9,1.3,3.9,1.8,6.1,1.9
	c2.4,0.1,4.5-0.9,6.5-2.1c6.1-3.9,8.3-11.7,4.9-18.1c-3.7-7-10.6-9.2-16.5-8.5c-3,0.3-5.8,1.4-8.4,2.8c-0.3,0.1-0.6,0.3-0.9,0.4
	c0.5-1,1-1.8,1.6-2.6c4.2-5.7,9.4-10.3,15.7-13.6c1.8-0.9,3.7-1.6,5.7-1.9c1.5-0.2,2.9-0.1,4.2,0.6c1.8,0.9,2.6,2.5,2,4.4
	c-0.6,2-1.8,3.4-3.7,4.2c-2,0.9-3.1,0.2-3.2-2c0-0.1,0-0.2,0-0.2c-0.1-1.2-0.5-1.8-1.3-1.8c-0.9,0-1.4,0.6-1.6,1.7c0,0,0,0.1,0,0.1
	c-0.4,3.6,2.5,6.4,6,5.6c3.6-0.8,5.9-3,7.2-6.4c1.4-3.7-0.2-7.4-3.8-9c-1.9-0.8-3.8-1.1-5.8-0.8c-2.7,0.3-5.3,1.2-7.7,2.5
	c-4.7,2.5-8.7,5.8-12.3,9.8c-0.2,0.3-0.5,0.6-0.9,1c0.1-0.4,0.1-0.6,0.1-0.8c1.2-4.7,1.7-9.5,2.3-14.3c0.5-3.8,0.8-7.6,1.4-11.4
	c0.6-4.2,1.5-8.3,3.2-12.2c1.7-3.8,3.8-7.2,6.9-10c1.5-1.3,3.1-2.3,5-2.9c3.9-1.2,7.3-0.2,9.8,2.9c1.4,1.7,2.2,3.6,2.6,5.7
	c1.7,8.5-3.7,14.6-10.1,16.5c-1.2,0.4-2.5,0.5-3.7,0.1c-1.9-0.5-3.2-2-3.4-3.9c-0.2-1.8,1-3.6,2.7-4.4c1.7-0.8,3.8,0,4.6,1.8
	c0.2,0.4,0.4,0.9,0.7,1.3c0.6,0.7,1.6,0.5,1.8-0.3c0.5-1.6,0.6-3.3-0.5-4.7c-1.4-1.7-3.3-2.7-5.6-2.4c-2.8,0.4-4.9,1.9-6.4,4.2
	c-2.3,3.6-1.3,8.2,2.2,10.6c2.2,1.6,4.7,1.9,7.3,1.6c3-0.4,5.6-1.7,8-3.5c5-3.8,7.5-8.8,7.2-15.1c-0.2-3.8-1.4-7.3-3.9-10.3
	c-2.2-2.6-5-4.3-8.5-4.7c-3.5-0.4-6.7,0.5-9.6,2.3c-2.9,1.8-5.2,4.1-7.1,6.9c-2,2.8-3.5,5.9-4.6,9.2c-0.1,0.4-0.3,0.8-0.5,1.3
	c-0.1-0.1-0.2-0.2-0.2-0.2c-0.1-0.1-0.1-0.3-0.1-0.4c-1.1-4.7-3-9.1-5.4-13.3c-2.3-4.1-5.1-7.9-8.8-10.9c-5-4.1-10.6-6.8-17.2-7.1
	c-5.7-0.3-11,1-15.6,4.4c-8.1,6-12.5,14.1-13.1,24.1c-0.3,4.6,0.7,9,3,13.1c3.2,5.6,10.8,11.1,19.8,8.8c5.3-1.3,8.8-4.5,10.4-9.8
	c0.4-1.3,0.6-2.6,0.7-3.9c0.3-4.4-1.2-8.8-6.2-11.3c-1.6-0.8-3.2-1.1-5-1.1c-0.8,0-1.4,0.5-1.5,1.1c-0.2,0.7,0.1,1.3,0.8,1.7
	c0.5,0.3,1,0.4,1.5,0.6c0.9,0.4,1.9,0.8,2.8,1.3c1.7,1,2.8,2.5,3.2,4.4c0.6,3.4,0,6.5-2,9.4c-0.8,1.1-1.7,1.9-2.9,2.5
	c-3.1,1.5-6.4,1.9-9.6,0.7c-3.7-1.4-6.6-3.9-8.4-7.5c-1.9-3.9-2.5-8-1.9-12.3c0.8-5.9,3.2-11,7.2-15.4c7.3-8,17.2-8.7,25.1-4.7
	c4.5,2.3,8.3,5.5,11.2,9.7c5.6,8.2,8.7,17.1,8.7,27.1c0,0.3,0,0.6,0,0.9c-0.2-0.1-0.3-0.2-0.4-0.2c-1.4-1.7-3.3-2.5-5.4-2.9
	c-4.4-0.9-8.5,1.5-9.9,5.8c-1.2,3.7,0.5,7.5,3.9,8.9c3.2,1.3,6.7-0.6,7.2-4c0.1-0.8-0.1-1.4-0.8-1.6c-0.6-0.2-1.3,0-1.7,0.6
	c-0.3,0.4-0.5,0.8-0.8,1.3c-0.7,1.1-1.7,1.3-2.8,0.6c-1.2-0.7-2.2-2.3-1.8-4.4c0.5-2.6,2.7-4.5,5.3-4.3c2.1,0.1,3.9,1,5.1,2.8
	c0.4,0.6,0.8,1.3,1.2,2c0.6,1,0.7,2.1,0.5,3.3c-0.5,4.1-1.4,8-2.5,12c-1.7,6.3-3.7,12.6-6.7,18.4c-2.6,5.1-6,9.5-10.4,13.1
	c-0.3,0.2-0.5,0.4-0.8,0.6c0.1-0.5,0.4-0.9,0.6-1.3c4.2-6.5,5.9-13.5,4.5-21.2c-1-5.7-4.4-9.7-9.5-12.3c-1.9-1-4-1.4-6.1-0.9
	c-4.1,0.9-6.6,3.6-7.7,7.4c-1,3.3,0.7,6.7,3.8,8.2c3.6,1.7,7.4,0.4,8.8-4.4c0.2-0.5,0-1-0.4-1.3c-0.4-0.4-1-0.5-1.5-0.3
	c-0.4,0.2-0.7,0.5-1,0.8c-0.5,0.5-0.8,1.1-1.3,1.6c-0.9,0.9-1.7,1-2.8,0.4c-1.7-1-2.3-3.1-1.4-4.9c0.5-0.9,1.2-1.8,1.9-2.5
	c1.3-1.3,2.9-1.6,4.6-1.1c0.6,0.2,1.2,0.4,1.7,0.7c3.4,2,5.8,4.8,6.8,8.7c0.6,2.5,0.7,5.1,0.5,7.7c-0.6,6.5-3.3,12-7.9,16.6
	c-1.5,1.5-3.3,2.5-5.4,3c-1.7,0.4-3.3,0.1-4.9-0.7c0.1-0.6,0.1-1.1,0.2-1.6c0.4-4.2-0.6-8.1-3-11.6c-2.6-3.8-6.3-5.3-10.8-4.8
	c-3.9,0.4-7.1,2.2-9.7,5c-3.9,4.2-5.4,9.2-5.7,14.8c-0.2,4.3,0.6,8.5,2,12.6c0.1,0.4,0.2,0.8,0.4,1.2c-0.1,0-0.1,0.1-0.2,0.1
	c-0.2-0.4-0.5-0.8-0.7-1.3c-4.1-8-5.9-16.4-5.1-25.3c0.7-7.6,3.9-13.9,9.6-19c1.8-1.6,3.9-2.7,6.2-3.2c1.7-0.4,3.4-0.3,4.8,1.1
	c0.7,0.7,0.9,1.4,0.6,2.3c-0.2,1-0.8,1.7-1.6,2.2c-0.8,0.4-1.5,0.6-2.4,0c-0.4-0.3-0.9-0.4-1.4-0.5c-0.9-0.1-1.7,0.6-1.5,1.5
	c0.1,0.4,0.3,0.9,0.6,1.2c0.9,1,2,1.5,3.3,1.6c1.3,0,2.4-0.4,3.5-1c4.5-2.6,4.7-8.5,0.4-11.4c-1.8-1.2-3.8-1.5-5.9-1.3
	c-3.8,0.5-7,2.2-9.8,4.8c-6.5,6.2-9.8,13.8-10.2,22.8c-0.2,4,0.1,8,0.9,11.9c2.4,11.8,8.4,21.3,17.7,28.8c0.2,0.2,0.4,0.4,0.8,0.7
	c-0.6,0-0.9,0-1.2,0c-2.4-0.2-4.9-0.4-7.3-0.6c-3.9-0.3-7.7-1.2-11.5-2.5c-3.5-1.2-6.7-3.1-9.3-5.8c-1.2-1.2-2.1-2.6-2.6-4.2
	c-0.4-1.3-0.5-2.6,0.3-3.9c1.3-2,4.6-2.5,6.5-0.9c1.5,1.2,1.7,2.5,0.6,4.1c-0.3,0.4-0.6,0.8-0.8,1.3c-0.2,0.4-0.2,0.9,0.1,1.3
	c0.3,0.5,0.8,0.5,1.3,0.4c0.3-0.1,0.6-0.2,0.8-0.4c2.2-1.4,3-4.6,1.8-7c-1.5-2.8-4.5-4.4-7.8-3.8c-4.5,0.8-7.4,4.2-6.3,9
	c0.5,2.2,1.6,4.1,3.2,5.7c2,2.1,4.2,3.8,6.8,5.2c4.1,2.2,8.6,3.4,13.2,4c5.7,0.8,11.5,1,17.2,1.2c0.5,0,0.9,0.2,1.3,0.6
	c4.2,5.8,6.1,12.3,5.3,19.5c-0.3,2.5-1.1,4.9-2.8,6.9c-1.5,1.7-3.3,3.2-5.3,4.3c-2,1.1-4.2,1.6-6.5,1.5c-3.3-0.1-6.5-1-9.4-2.7
	c-5.3-3-7.9-7.6-7.8-13.6c0-4.7,3-8.9,7.4-10.5c3-1.1,5.8-0.7,8.3,1.3c1.7,1.4,2.2,3.2,1.9,5.3c-0.3,1.9-1.7,3.1-3.2,4.1
	c-1.2,0.8-2.4,1.1-3.8,0.6c-0.3-0.1-0.7-0.1-1-0.2c-1-0.1-1.7,0.2-2,1c-0.3,0.7,0,1.3,0.9,1.9c1.4,0.9,3,1.3,4.7,1
	c2.5-0.4,4.6-1.8,6.3-3.7c3.4-3.8,3.1-9.7-0.8-13.1c-2.8-2.5-6.2-3.4-9.9-2.9c-6.7,1-11.9,6.5-12.7,13.1c-0.9,7.2,1.8,13.1,7.4,17.5
	c4.2,3.3,9,4.8,14.4,4.8c0.3,0,0.6,0,1.1,0c-1.3,1.2-2.4,2.2-3.5,3.3c-3.9,4.1-8.4,7.1-13.4,9.6c-2.5,1.2-5.2,2.1-7.9,2.5
	c-7.4,1.2-13.1-5.4-12.5-11.7c0.4-3.7,3.4-6.6,6.9-6.5c2,0,3.8,1.3,4.3,3c0.5,1.9-0.3,4.3-1.9,5.3c-0.6,0.4-1.2,0.8-1.8,1.2
	c-0.6,0.4-0.7,1.1-0.5,1.6c0.3,0.6,0.8,0.9,1.4,1c0.2,0,0.5-0.1,0.7-0.1c3.1-0.7,4.9-2.6,5.7-5.6c1.4-5.3-2.1-9.3-6.1-10
	c-7.4-1.3-11.9,4.5-12.4,9.5c-0.7,7.2,4.5,13.6,10.5,15.2c3.1,0.8,6.1,0.6,9.1-0.2c3-0.7,5.8-2,8.4-3.5c0.3-0.2,0.6-0.5,1.1-0.4
	c-0.2,0.3-0.3,0.6-0.4,0.9c-3.8,7.3-5.1,15-3.6,23.1c1.9,10.3,7.7,17.7,17.2,22.2c2,0.9,3.8,2.1,5.8,3.2c0,0.1,0,0.2,0,0.3
	c-0.1,0-0.3,0.1-0.4,0.1c-3.5,0.9-7.1,1.4-10.7,1.7c-4.9,0.4-9.7,0-14.3-1.5c-4.4-1.4-7.2-4.4-8.5-8.8c-0.5-1.7-0.7-3.5-0.1-5.2
	c0.8-2.3,3.3-3.4,5.5-2.4c2,0.9,2.3,3.1,0.7,4.5c-0.4,0.3-0.8,0.6-1,1c-0.7,1-0.1,2.2,1.2,2.1c0.5,0,1-0.2,1.5-0.4
	c3.5-1.8,3.6-6.9,1.1-9.2c-4.1-3.6-10.6-1.8-12.2,3.5c-0.5,1.6-0.5,3.3-0.2,5c1.1,6.1,4.7,10.3,10.4,12.5c1.8,0.7,3.8,1.1,5.7,1.5
	c3.5,0.7,7,0.7,10.5,0.5c4.9-0.3,9.7-1.1,14.3-2.9c0.5-0.2,0.9-0.1,1.4,0.1c1.6,0.9,3.3,1.7,4.9,2.6c5.1,2.8,10.1,5.9,14.4,9.8
	c2.6,2.4,5,5,6.9,7.9c3.4,5,5,10.5,5.1,16.6c0,4.4-0.7,8.7-2.8,12.6c-1.4,2.6-3,5.1-5.5,6.8c-3.9,2.7-8.2,4.4-12.9,4.8
	c-2.8,0.2-5.6,0.2-8.4-0.4c-3.4-0.8-6.3-2.5-9-4.6c-5.3-4.2-8.8-9.6-9.5-16.5c-0.6-5.9,1.4-10.8,6.1-14.4c3.8-3,8.1-4.3,13-2.6
	c4,1.4,7.2,3.9,9,7.9c0.6,1.4,1.1,2.9,0.8,4.4c-0.5,2.6-1.8,4.8-4.2,6.1c-0.9,0.5-1.9,1-2.8,1.5c-0.4,0.2-0.9,0.5-1.1,0.9
	c-0.7,1,0,2.2,1.2,2.1c0.4,0,0.9-0.1,1.3-0.3c1.3-0.5,2.6-1.1,3.9-1.7c0.7-0.3,1.4-0.8,2-1.3c3.3-3.5,4.7-7.4,3.1-12.1
	c-1.8-5.3-5.6-8.7-10.6-10.9c-2.6-1.1-5.4-1.7-8.3-1.3c-6.3,0.9-11.2,4.1-14.5,9.5c-3,4.7-3.6,10-2.2,15.3
	c2.5,10,8.9,16.7,18.2,20.6c4.6,2,9.6,1.8,14.4,1.3c5-0.6,9.5-2.7,13.6-5.6c0.7-0.5,1.4-1.1,2-1.7c3.4-3.6,5.9-7.8,7-12.7
	c2.2-9.8,0.3-18.9-5.3-27.2c-2.3-3.4-5-6.3-8.1-9c-0.3-0.3-0.6-0.5-0.9-0.8c0.3-0.1,0.5-0.1,0.6,0c3.6,1.3,7.1,2.8,10.5,4.6
	c5.8,3.1,11.1,6.9,15.7,11.8c2.9,3.1,5.3,6.4,6.9,10.3c1.5,3.7,1.9,7.6,1.1,11.5c-0.6,2.9-2.4,4.8-5.1,5.9c-0.5,0.2-1,0.3-1.5,0.4
	c-2.3,0.1-4.5-1.5-5.2-3.7c-0.7-2,0.3-4.8,2.2-6.1c1.3-0.9,2.4-0.7,3.4,0.5c0.3,0.3,0.6,0.7,1,1c0.5,0.4,1.1,0.4,1.7,0.2
	c0.6-0.3,0.8-0.9,0.7-1.5c-0.1-1.1-0.5-2.1-1.4-2.8c-1.9-1.6-4-2-6.3-1.2c-3.4,1.3-6,5.5-5.6,9.2c0.5,5,5.4,8.8,10.4,8.2
	c4.4-0.5,8.6-4.1,9.7-8.6c1-3.8,1-7.6-0.1-11.4c-1.4-4.9-4.1-9.2-7.4-13c-4.9-5.5-10.7-9.8-17.2-13.2c-0.3-0.2-0.7-0.4-1-0.6
	c6.7,0.3,9,0.2,13.3-0.4c7.5-1,14.2-4,20-8.8c7.4-6.1,10.7-14,10.1-23.5c-0.3-4.6-2.3-8.3-6.1-11c-5.4-3.9-11.9-0.8-13.6,4.6
	c-0.9,2.9,0,5.7,2.3,7.5c2.5,1.9,5.6,1.7,8.2,0.2c1-0.6,1-1.8-0.1-2.4c-0.3-0.2-0.7-0.2-1.1-0.2c-0.8,0-1.6,0.1-2.4,0.1
	c-1.9,0.1-3.3-1.5-3.1-3.4c0.4-3.2,4.2-6,7.6-3.3c2.1,1.7,3.4,3.8,4,6.4c0.6,2.8,0.4,5.7-0.2,8.5c-1.2,5.6-3.9,10.3-8.5,13.9
	c-3.3,2.7-6.9,4.9-11,6.3c-7.2,2.6-14.6,2.8-22.1,1.9c-5.2-0.6-10.2-1.9-15.1-3.5c-0.3-0.1-0.7-0.2-1-0.4c0.2-0.1,0.4-0.1,0.6-0.1
	c3.3,0.5,6.5,0.5,9.8,0c9.5-1.4,16.4-6.5,21-14.7c3.5-6.3,4.9-13.2,4.7-20.4c-0.1-3.5-0.9-6.8-2.6-9.9c-0.1-0.2-0.1-0.3-0.2-0.6
	c0.2,0,0.4,0,0.5,0c3.3,0.6,6.5,0.4,9.8-0.1c3.6-0.7,6.6-2.4,9.5-4.6c1.9-1.5,3.7-3.1,5.6-4.6c1.5-1.2,3.1-2.4,4.7-3.4
	c1.6-1.1,3.4-1.8,5.4-2.1c1.4-0.2,2.7,0,3.8,0.8c2,1.5,2.8,3.6,2.3,6.1c-0.5,2.3-1.9,3.9-4.3,4.6c-1.2,0.4-2.4,0.3-3.6-0.3
	c-1.5-0.8-1.5-2.1-0.2-3c0.3-0.2,0.8-0.4,1.1-0.6c0.3-0.3,0.6-0.6,0.8-0.9c0.3-0.6,0.1-1.3-0.5-1.7c-0.5-0.4-0.9-0.3-1.6,0.1
	c-0.4,0.3-0.9,0.5-1.3,0.6c-3.3,1.4-4,5-1.4,7.5c0.8,0.8,1.8,1.4,3,1.6c1.7,0.4,3.5,0.4,5.2-0.1C287.1,256.6,290.1,251.4,289,246.6z
	 M230.6,161c1.3-10.2,8.3-16.4,17.3-18.2c5.5-1.1,11.3,2.2,13.1,7.2c1.9,5.3-0.5,10.9-5.8,13c-1.7,0.7-3.4,0.5-5-0.6
	c-0.1-0.1-0.2-0.1-0.3-0.2c-2.7-1.2-3.3-3.6-3.4-6.2c0-2,1.1-3.3,3.1-3.8c0.5-0.1,1-0.2,1.4-0.3c0.6-0.2,0.9-0.6,1-1.3
	c0.1-0.6-0.4-1.1-1-1.4c-0.2-0.1-0.4-0.1-0.6-0.1c-3.7-0.3-7.2,2.4-7.7,6c-0.3,2.1,0.1,4.2,1,6.1c0.3,0.5,0.5,1,0.8,1.6
	c-4.4,2.4-7,6.3-8.6,11.2c-0.5-0.6-0.9-1-1.3-1.5c-0.8-1.1-1.7-2.3-2.5-3.4C230.7,166.7,230.2,163.9,230.6,161z M216.8,169.6
	c4.6-1.7,9.2,1.8,8.8,6.7c-0.2,2.2-1.5,3.6-3.3,4.6c-0.8,0.5-1.8-0.1-1.9-1.1c-0.1-0.6-0.1-1.1-0.1-1.7c0-0.6-0.3-1.2-0.9-1.5
	c-0.9-0.5-2.1-0.2-2.4,0.8c-0.5,1.7-0.6,3.4,0.5,4.9c1.7,2.4,4.2,2.9,6.6,1.7c6.7-3.2,7.7-11.9,2-16.6c-1.7-1.4-3.7-2.2-6-2.4
	c-0.2,0-0.5,0-0.7-0.1c0-0.1-0.1-0.1-0.1-0.2c2.8-1.8,5.3-3.9,7.7-6.3c-1.1,7.9,2,13.6,8.7,17.9c-0.3,2.2,0,4.5,1.3,6.6
	c-8.3,2.8-12.9,8.8-15.3,17c-1.6,0-3.4-0.1-5-1c-2.7-1.4-4.6-3.6-5.9-6.3c-2-4.4-2.9-9.1-1.8-13.9
	C210,174.5,212.5,171.2,216.8,169.6z M183.1,186.4c-3.8-5.4-5.6-11.4-5.8-18c-0.1-2.7,0.2-5.3,1.1-7.9c0.9-2.9,2.5-5.3,4.8-7.2
	c1.8-1.5,3.8-2.4,6.1-2.5c2.2-0.1,4.2,0.6,5.6,2.3c2.4,2.9,4,9.1,1.6,13.6c-1.2,2.3-3.1,3.8-5.7,4.4c-0.7,0.1-1.5,0.1-2.1-0.1
	c-2.2-0.7-3.8-3-3.8-5.3c0-1.7,1.4-3.2,3-3.3c0.5,0,0.9,0.2,1.4,0.5c0.5,0.3,1,0.7,1.6,0.9c0.4,0.2,0.9,0.2,1.3,0.2
	c0.7-0.1,1.2-0.9,0.9-1.5c-0.6-1.3-1.3-2.5-2.6-3.2c-1.5-0.7-3.1-0.7-4.7-0.2c-4.8,1.7-6.3,6.4-4.1,10.9c1.8,3.6,6.2,6.6,11.5,4.8
	c3.5-1.2,6.2-3.4,7.8-6.8c0.1-0.3,0.3-0.6,0.4-0.8c0,0,0.1-0.1,0.1-0.1c3,1.7,6.2,1.9,9.5,1.2c0.1,0.1,0.1,0.2,0.2,0.3
	c-0.2,0.1-0.5,0.2-0.7,0.4c-3.1,3.1-4.9,6.8-5.3,11.2c-0.5,4.8,0.6,9.2,2.6,13.5c1.1,2.3,2.7,4.3,4.8,5.9c0.2,0.1,0.3,0.3,0.5,0.4
	c-0.1,0.1-0.1,0.2-0.2,0.2c-2.9,0.1-5.8,0.3-8.7-0.2C195.3,198.3,188.3,193.8,183.1,186.4z M195.1,230.9c3.9-3.3,5.6-7.6,5.8-12.6
	c0.3-5.7-1.1-11.1-3.8-16.1c-0.1-0.2-0.2-0.4-0.3-0.6c0,0,0-0.1,0-0.2c2,0.5,4,1.1,6,1.5c2,0.3,4.1,0.3,6.2,0.5
	c-0.2,0.2-0.4,0.4-0.5,0.5c-0.9,0.9-1.9,1.7-2.7,2.6c-0.6,0.7-0.9,1.6-1.2,2.4c-0.1,0.4-0.1,0.8,0,1.2c0.1,0.3,0.4,0.6,0.7,0.7
	c0.2,0,0.7-0.2,0.8-0.5c1.4-2.9,4.1-4.4,6.9-5.4c1.9-0.7,3.8-1.1,5.8-0.8c2.8,0.4,4.9,1.9,6.5,4.1c2.4,3.5,3.4,7.4,2.6,11.5
	c-1,5.1-3.9,8.7-9.2,10.3c-3.4,1-7.7-1.5-7.7-5.9c0-2.1,2.5-4.3,4.4-4.1c1,0.1,1.8,0.5,2.3,1.4c0.3,0.5,0.5,1,0.8,1.4
	c0.2,0.3,0.4,0.6,0.7,0.9c0.5,0.5,1.2,0.5,1.7,0.1c0.5-0.4,0.6-0.9,0.4-1.4c-0.4-1.1-0.8-2.2-1.4-3.2c-1.5-2.4-4.8-3.4-7.5-2.4
	c-3.4,1.2-6.9,5-4.9,10.4c0.2,0.5,0.4,0.9,0.6,1.6c-4.7,0.1-9,1.1-13.5,2.7C194.9,231.2,195,231,195.1,230.9z M223.9,232.1
	c-0.2,1-0.4,1.9-0.6,2.7c-0.7-0.2-1.2-0.7-1.9-1.6C222.2,232.8,222.9,232.5,223.9,232.1z M241.4,277.2c-0.6,2.8-1.3,5.6-2.5,8.2
	c-3.8,8.1-9.9,13.2-18.9,14.8c-5.4,0.9-10.7,0.3-15.9-1.1c-1.1-0.3-2.1-0.6-3.1-0.9c3.3-1.4,5.9-3.4,8-6.1c4.2-5.4,5-11.2,2.1-17.5
	c-1.6-3.5-4-6.2-7.3-8.1c-3.4-2-6.9-2.4-10.7-1.1c-1.2,0.4-2.3,1.1-3.2,1.9c-0.9,0.8-1.7,1.7-2.6,2.6c-0.3,0.3-0.5,0.6-0.7,0.9
	c-0.3,0.6-0.3,1.2,0.1,1.7c0.4,0.5,1,0.7,1.6,0.5c0.4-0.1,0.8-0.4,1.2-0.7c0.8-0.6,1.5-1.3,2.3-1.9c2.7-2.3,5.8-2.7,8.9-1.1
	c8.3,4.3,10.7,14.9,3.6,21.7c-3.6,3.4-7.8,4.3-12.5,3.2c-3.1-0.7-6.1-2-8.7-4c-0.7-0.5-1.3-1-2-1.5c-5.2-4-8.1-9.4-9.1-15.8
	c-2-12.5,2.4-22.6,11.7-30.8c3.7-3.3,7.9-5.7,12.5-7.4c0.3-0.1,0.7-0.2,1.2-0.4c-0.5,0.8-1,1.4-1.4,2c-2.6,4.2-3.3,8.7-1.9,13.5
	c1.5,4.9,4.9,8,10,8.9c5.7,1,9-2.9,9.7-7.2c0.4-2.5-0.1-4.9-2-6.7c-3.3-3.3-8.6-2-10,2.5c-0.2,0.7-0.1,1.2,0.4,1.5
	c0.4,0.3,1.1,0.4,1.6,0c0.3-0.2,0.5-0.4,0.7-0.6c0.3-0.3,0.6-0.7,0.9-1c1.3-1.3,2.8-1.2,4,0.1c1,1.1,1.1,2.5,0.9,3.9
	c-0.3,2.5-2,4.3-4.3,4.5c-0.7,0.1-1.4,0-2-0.2c-4-1.2-6.5-3.9-7.2-8.1c-1-5.9,1.3-10.6,5.9-14.2c0.4-0.3,0.9-0.5,1.3-0.6
	c2.5-0.4,5-0.5,7.5-0.1c0.3,0.1,0.7,0.2,1,0.3c0.6,0.2,1.3,0.6,1.9,0.7c2.7,0.5,4.7,2.1,6.6,3.8c0.1,0.1,0.1,0.1,0.2,0.2
	c0.9,0.8,1.3,1.6,1.3,2.9c0,4.2,2.1,7.6,5.2,10.3c0.3,0.2,0.5,0.4,0.8,0.7c-0.2,0.1-0.3,0.2-0.5,0.3c-3.5,1.1-6.1,3.4-7.9,6.6
	c-2.4,4.2-3.5,8.7-2.3,13.5c0.9,3.6,3,6.3,6.3,8c1.7,0.9,3.6,1.2,5.5,0.8c3.9-0.8,6.8-5.3,5.8-9c-0.5-1.9-1.7-3.4-3.6-4.2
	c-0.9-0.4-1.5-0.2-2,0.3c-0.4,0.5-0.4,1.2,0,1.9c0.3,0.4,0.7,0.8,1,1.2c1.2,1.3,1.3,2.5,0.5,4.1c-0.9,1.5-2.2,2.2-3.8,1.9
	c-1.2-0.2-2.2-0.9-3.1-1.7c-1.8-1.6-2.7-3.7-2.8-6.1c-0.3-4,0.8-7.6,3.4-10.6c2.1-2.5,4.9-3.7,8.2-3.2c1.6,0.2,2.9,1.1,4.1,2.2
	c2.2,2.1,3.3,4.8,3.9,7.7C242.6,269.2,242.2,273.2,241.4,277.2z"/>
</svg>
