<svg id="Layer_1" enable-background="new 0 0 511.96 511.96" height="512" viewBox="0 0 511.96 511.96" width="512" xmlns="http://www.w3.org/2000/svg"><g><g clip-rule="evenodd" fill-rule="evenodd"><path d="m133.626 143.818c3.983-37.902 19.735-73.835 49.779-103.88 16.909-16.909-7.354-40.961-23.873-24.442-66.668 66.668-94.001 161.12-69.361 247.682-23.984-29.617-38.255-66.165-38.255-108.654 0-23.913-34.164-23.763-34.164-.402 0 94.282 47.461 180.398 126.093 224.183-37.902-3.983-73.836-19.736-103.88-49.78-16.909-16.909-40.961 7.354-24.442 23.873 66.667 66.668 161.12 94.001 247.682 69.361-29.617 23.984-66.165 38.255-108.654 38.255-23.913 0-23.763 34.164-.402 34.164 94.282 0 180.398-47.461 224.183-126.093-3.983 37.902-19.736 73.836-49.78 103.88-16.909 16.909 7.354 40.961 23.873 24.442 66.668-66.667 94.001-161.12 69.361-247.682 23.984 29.617 38.255 66.165 38.255 108.654 0 23.913 34.164 23.763 34.164.402 0-94.282-47.461-180.398-126.093-224.183 37.902 3.983 73.836 19.736 103.88 49.78 16.909 16.909 40.961-7.354 24.442-23.873-66.667-66.668-161.12-94.001-247.682-69.361 29.619-23.984 66.167-38.254 108.656-38.254 23.913 0 23.763-34.164.402-34.164-94.283 0-180.398 47.46-224.184 126.092zm22.279 172.457c11.096-7.977 18.176-19.884 12.008-30.551-10.811-18.724-19.365-38.19-25.351-57.881 13.487 2.205 26.913-1.208 30.094-13.113 5.596-20.884 13.311-40.697 23.002-58.853 7.977 11.096 19.884 18.176 30.551 12.008 18.724-10.811 38.19-19.365 57.881-25.351-2.205 13.487 1.208 26.913 13.113 30.094 20.884 5.596 40.698 13.312 58.854 23.002-11.096 7.977-18.176 19.884-12.008 30.552 10.811 18.724 19.365 38.19 25.351 57.881-13.487-2.205-26.913 1.208-30.094 13.113-5.596 20.884-13.311 40.698-23.002 58.854-7.977-11.096-19.884-18.176-30.551-12.008-18.724 10.81-38.19 19.365-57.881 25.351 2.205-13.487-1.208-26.913-13.113-30.094-20.885-5.598-40.698-13.314-58.854-23.004z" fill="#2069e0"/><path d="m172.655 214.731c-3.181 11.905-16.607 15.318-30.094 13.113 5.986 19.69 14.541 39.157 25.351 57.881 6.169 10.667-.912 22.574-12.008 30.551 18.156 9.69 37.97 17.406 58.854 23.002 11.905 3.181 15.318 16.607 13.113 30.094 19.69-5.986 39.157-14.541 57.881-25.351 10.667-6.168 22.574.912 30.551 12.008 9.69-18.156 17.406-37.97 23.002-58.854 3.181-11.905 16.607-15.318 30.094-13.113-5.986-19.69-14.541-39.157-25.351-57.881-6.168-10.667.912-22.574 12.008-30.552-18.156-9.69-37.97-17.406-58.854-23.002-11.905-3.181-15.318-16.607-13.113-30.094-19.69 5.986-39.157 14.541-57.881 25.351-10.667 6.169-22.575-.912-30.551-12.008-9.69 18.157-17.406 37.971-23.002 58.855zm44.325 41.221c0-21.539 17.461-39 39-39s39 17.461 39 39-17.461 39-39 39-39-17.461-39-39z" fill="#8db4f7"/><circle cx="255.98" cy="255.952" fill="#082c6c" r="39"/></g><g><path d="m418.404 157.558c16.957 7.895 32.507 18.88 46.519 32.892 12.827 12.827 29.641 9.857 38.947.551 9.26-9.26 12.279-25.924-.363-38.567-55.536-55.536-129.45-84.318-202.251-80.907 17.575-6.41 36.334-9.637 56.151-9.637 18.141 0 27.929-13.988 27.929-27.15 0-13.096-9.647-27.014-27.527-27.014-78.539 0-151.149 31.909-200.223 85.802 7.896-16.959 18.879-32.506 32.892-46.519 12.827-12.828 9.856-29.64.55-38.947-9.26-9.26-25.923-12.281-38.566.363-17.886 17.885-33.248 37.925-45.662 59.565-2.748 4.791-1.093 10.902 3.697 13.65 4.793 2.75 10.903 1.093 13.65-3.698 11.536-20.107 25.82-38.738 42.456-55.374 4.807-4.805 8.793-1.854 10.281-.363 1.521 1.52 4.511 5.603-.55 10.663-30.478 30.477-48.192 67.454-52.654 109.905-.496 4.725 2.399 9.147 6.929 10.58 4.533 1.434 9.442-.518 11.753-4.669 41.547-74.61 124.101-120.959 215.447-120.959 6.794 0 7.527 4.905 7.527 7.014 0 2.15-.772 7.15-7.929 7.15-43.102 0-81.774 13.621-114.946 40.483-3.692 2.99-4.771 8.165-2.582 12.38s7.047 6.309 11.612 5.009c82.134-23.379 173.282 2.221 237.873 66.813 1.813 1.812 2.69 3.676 2.61 5.542-.071 1.656-.891 3.384-2.247 4.74-1.521 1.52-5.602 4.511-10.662-.551-30.478-30.478-67.455-48.193-109.906-52.654-4.731-.501-9.146 2.4-10.579 6.929s.519 9.442 4.669 11.753c74.609 41.546 120.958 124.1 120.958 215.447 0 2.563-.697 4.501-2.073 5.763-1.222 1.121-3.021 1.764-4.94 1.764-2.149 0-7.15-.772-7.15-7.929 0-43.102-13.62-81.775-40.483-114.947-2.989-3.691-8.165-4.771-12.381-2.581-4.216 2.189-6.31 7.043-5.009 11.612 23.38 82.134-2.223 173.282-66.814 237.874-2.25 2.25-4.486 3.038-6.841 2.407-2.547-.683-4.803-2.94-5.485-5.489-.648-2.418.225-4.847 2.596-7.217 30.478-30.478 48.192-67.456 52.654-109.906.496-4.725-2.399-9.147-6.929-10.58-4.535-1.433-9.443.52-11.753 4.669-41.547 74.61-124.102 120.958-215.447 120.958-6.794 0-7.527-4.905-7.527-7.014 0-2.15.772-7.15 7.929-7.15 43.103 0 81.776-13.621 114.947-40.483 3.692-2.99 4.771-8.165 2.582-12.38-2.189-4.216-7.042-6.31-11.613-5.009-82.134 23.379-173.282-2.223-237.873-66.813-4.804-4.804-1.854-8.791-.363-10.282 1.521-1.521 5.601-4.512 10.663.55 30.478 30.478 67.455 48.193 109.906 52.654 4.729.497 9.146-2.4 10.579-6.929s-.519-9.442-4.669-11.753c-74.611-41.545-120.96-124.099-120.96-215.446 0-6.793 4.904-7.527 7.014-7.527 2.149 0 7.15.772 7.15 7.929 0 43.102 13.62 81.775 40.483 114.947 2.989 3.691 8.164 4.771 12.381 2.581 4.216-2.189 6.31-7.043 5.009-11.612-9.359-32.878-11.072-67.023-5.093-101.485.944-5.441-2.701-10.618-8.143-11.563-5.451-.944-10.618 2.702-11.563 8.144-3.196 18.42-4.368 36.769-3.521 54.916-6.355-17.51-9.555-36.194-9.555-55.927 0-18.141-13.988-27.929-27.15-27.929-13.096 0-27.014 9.648-27.014 27.527 0 78.54 31.909 151.151 85.803 200.224-16.957-7.895-32.508-18.88-46.519-32.892-12.829-12.827-29.641-9.856-38.947-.55-9.26 9.26-12.28 25.923.362 38.566 55.537 55.537 129.446 84.326 202.251 80.908-17.573 6.408-36.336 9.636-56.151 9.636-18.141 0-27.929 13.988-27.929 27.15 0 13.096 9.647 27.014 27.527 27.014 78.539 0 151.15-31.909 200.224-85.803-7.896 16.958-18.88 32.507-32.892 46.519-7.459 7.459-10.292 17.131-7.772 26.536 2.521 9.406 10.226 17.112 19.628 19.631 2.246.602 4.503.897 6.74.897 7.04 0 13.87-2.931 19.42-8.48 55.536-55.536 84.316-129.443 80.908-202.252 6.409 17.575 9.637 36.335 9.637 56.152 0 18.141 13.988 27.929 27.15 27.929 13.096 0 27.014-9.647 27.014-27.527.002-78.539-31.907-151.151-85.801-200.224z"/><path d="m194.992 145.899c-3.446.229-6.53 2.222-8.157 5.27-9.996 18.728-18.017 39.242-23.839 60.974-.001.002-.001.004-.002.006-2.215 8.291-17.128 6.103-18.818 5.825-3.408-.554-6.865.684-9.14 3.284-2.274 2.599-3.047 6.189-2.042 9.494 6.173 20.31 15.008 40.487 26.262 59.979 4.296 7.428-7.796 16.424-9.188 17.425-2.805 2.016-4.37 5.337-4.141 8.784s2.222 6.531 5.269 8.158c18.727 9.995 39.241 18.015 60.981 23.841 8.29 2.215 6.102 17.125 5.824 18.818-.558 3.409.684 6.865 3.283 9.14 1.849 1.617 4.196 2.475 6.587 2.475.973 0 1.952-.142 2.907-.432 20.312-6.175 40.489-15.009 59.979-26.262 7.428-4.296 16.426 7.796 17.427 9.188 2.016 2.804 5.332 4.366 8.784 4.141 3.446-.23 6.53-2.222 8.157-5.27 9.996-18.729 18.017-39.243 23.841-60.981 2.215-8.29 17.126-6.101 18.819-5.825 3.406.558 6.864-.685 9.139-3.284 2.275-2.6 3.047-6.189 2.042-9.494-6.174-20.309-15.009-40.486-26.262-59.978-4.296-7.428 7.796-16.424 9.188-17.426 2.806-2.017 4.371-5.338 4.141-8.785-.229-3.447-2.222-6.531-5.27-8.157-18.729-9.996-39.244-18.016-60.98-23.84-8.29-2.215-6.103-17.126-5.825-18.819.558-3.409-.685-6.865-3.284-9.139-2.6-2.275-6.189-3.046-9.493-2.042-20.31 6.174-40.487 15.009-59.979 26.262-7.429 4.296-16.424-7.795-17.425-9.188-2.016-2.806-5.328-4.371-8.785-4.142zm36.216 30.646c13.939-8.047 28.231-14.761 42.646-20.04 1.771 13.124 9.169 22.685 20.76 25.782 15.545 4.165 30.399 9.524 44.325 15.984-8.028 10.533-9.558 22.524-3.551 32.909 8.046 13.938 14.761 28.233 20.039 42.646-13.124 1.772-22.685 9.169-25.781 20.76-4.165 15.545-9.524 30.399-15.984 44.324-10.534-8.027-22.524-9.557-32.91-3.55-13.938 8.047-28.23 14.761-42.645 20.039-1.771-13.124-9.169-22.684-20.761-25.781-15.545-4.166-30.4-9.525-44.323-15.985 8.027-10.533 9.557-22.523 3.55-32.909-8.048-13.939-14.762-28.231-20.039-42.646 13.12-1.772 22.681-9.168 25.781-20.76 4.165-15.545 9.524-30.399 15.984-44.324 10.532 8.028 22.522 9.558 32.909 3.551z"/><path d="m255.98 304.952c27.019 0 49-21.981 49-49s-21.981-49-49-49-49 21.981-49 49 21.981 49 49 49zm0-78c15.99 0 29 13.01 29 29s-13.01 29-29 29-29-13.009-29-29c0-15.99 13.009-29 29-29z"/><path d="m96.475 123.765c5.522 0 10-4.477 10-10s-4.478-10-10-10h-.008c-5.522 0-9.996 4.477-9.996 10s4.481 10 10.004 10z"/><path d="m441.266 77.124c5.522 0 10-4.477 10-10s-4.478-10-10-10h-.008c-5.522 0-9.996 4.477-9.996 10s4.481 10 10.004 10z"/><path d="m395.32 225.623c5.522 0 10-4.477 10-10s-4.478-10-10-10h-.007c-5.522 0-9.997 4.477-9.997 10s4.482 10 10.004 10z"/><path d="m67.152 80.671c5.522 0 10-4.481 10-10.004s-4.478-10-10-10-10 4.477-10 10v.007c0 5.523 4.477 9.997 10 9.997z"/><path d="m215.651 126.615c5.522 0 10-4.481 10-10.004s-4.478-10-10-10-10 4.477-10 10v.007c0 5.523 4.477 9.997 10 9.997z"/><path d="m70.695 434.781c-5.522 0-10 4.477-10 10s4.478 10 10 10h.008c5.522 0 9.996-4.477 9.996-10s-4.482-10-10.004-10z"/><path d="m116.647 306.282c5.522 0 9.996-4.477 9.996-10s-4.481-10-10.004-10-10 4.477-10 10 4.478 10 10 10z"/><path d="m444.809 431.234c-5.522 0-10 4.481-10 10.004s4.478 10 10 10 10-4.477 10-10v-.007c0-5.524-4.478-9.997-10-9.997z"/><path d="m296.309 385.289c-5.522 0-10 4.481-10 10.004s4.478 10 10 10 10-4.477 10-10v-.007c0-5.523-4.478-9.997-10-9.997z"/></g></g></svg>